<?xml version="1.0" standalone="no"?>
<!DOCTYPE svg PUBLIC "-//W3C//DTD SVG 20010904//EN"
 "http://www.w3.org/TR/2001/REC-SVG-20010904/DTD/svg10.dtd">
<svg version="1.0" xmlns="http://www.w3.org/2000/svg"
 width="1080.000000pt" height="1080.000000pt" viewBox="0 0 1080.000000 1080.000000"
 preserveAspectRatio="xMidYMid meet">
<metadata>
Created by potrace 1.14, written by Peter Selinger 2001-2017
</metadata>
<g transform="translate(0.000000,1080.000000) scale(0.100000,-0.100000)"
fill="#000000" stroke="none">
<path d="M6360 10682 c-40 -31 -96 -119 -110 -173 -6 -23 -22 -58 -34 -78 -13
-20 -45 -76 -73 -126 -135 -242 -165 -290 -263 -416 -19 -25 -60 -79 -91 -120
-31 -41 -68 -85 -81 -99 -26 -26 -131 -158 -182 -229 l-30 -41 -75 0 c-42 -1
-119 -5 -171 -10 -105 -10 -406 -57 -420 -65 -4 -3 -43 -12 -87 -21 -43 -9
-116 -27 -163 -41 -47 -14 -94 -27 -105 -30 -90 -23 -463 -151 -522 -178 -17
-8 -34 -15 -38 -15 -15 0 -193 -74 -293 -121 -57 -27 -111 -49 -121 -49 -36 0
-623 307 -681 356 -47 39 -511 262 -585 280 -5 2 -28 10 -50 18 -81 29 -128
23 -178 -24 -42 -39 -40 -83 12 -320 23 -107 44 -206 47 -220 2 -14 6 -34 9
-45 4 -22 21 -257 30 -425 3 -58 10 -127 15 -155 5 -27 14 -95 20 -150 7 -55
18 -132 25 -172 8 -40 17 -110 21 -156 7 -87 6 -91 -61 -218 -8 -14 -25 -54
-38 -90 -28 -73 -111 -286 -157 -404 -51 -130 -87 -237 -99 -290 -6 -27 -20
-89 -32 -137 -15 -67 -21 -126 -22 -255 -2 -154 0 -178 27 -288 29 -122 112
-352 167 -460 16 -33 54 -95 84 -138 30 -43 63 -94 74 -112 37 -64 219 -183
408 -269 66 -29 128 -59 139 -65 30 -16 183 -76 247 -96 60 -19 66 -25 43 -44
-48 -40 -174 -428 -176 -538 l0 -33 -62 0 c-35 -1 -126 -1 -202 0 -199 1 -273
-24 -313 -109 -14 -29 -15 -42 -4 -95 17 -82 54 -158 107 -217 24 -27 44 -54
44 -59 0 -15 75 -122 102 -146 13 -12 52 -38 88 -59 36 -21 83 -50 105 -65 22
-15 46 -29 53 -31 10 -3 14 -42 16 -154 3 -124 15 -245 41 -410 2 -11 11 -65
19 -120 17 -107 19 -115 64 -275 81 -285 96 -329 151 -438 16 -32 36 -64 45
-71 9 -8 16 -18 16 -23 0 -20 99 -137 227 -270 72 -75 166 -178 208 -228 41
-50 84 -101 95 -113 11 -11 20 -24 20 -28 0 -4 6 -14 13 -21 6 -7 32 -38 57
-68 62 -75 97 -111 152 -154 42 -33 49 -46 72 -119 14 -45 28 -95 32 -112 4
-16 10 -34 15 -40 4 -5 7 -14 7 -18 0 -9 17 -54 37 -102 8 -16 22 -53 33 -80
22 -56 52 -109 133 -235 92 -141 145 -209 272 -344 126 -134 151 -151 253
-176 49 -13 58 -11 155 20 176 55 296 154 423 347 31 47 37 60 70 154 l17 47
78 0 c43 0 120 9 172 20 52 11 164 30 249 42 205 28 390 71 390 89 0 23 209
105 290 115 67 8 104 19 195 56 39 15 106 43 150 60 127 52 257 124 303 170
44 44 47 45 119 22 26 -9 37 -6 67 14 32 22 41 39 37 67 -3 18 16 5 32 -23 30
-50 204 -236 249 -267 89 -60 145 -77 248 -78 93 0 97 1 165 40 39 22 92 48
118 57 26 9 60 26 75 38 15 11 65 49 112 84 86 63 144 128 181 201 24 47 49
167 49 235 0 50 -24 204 -40 255 -66 210 -153 462 -173 501 l-15 30 60 74 c79
99 103 137 193 305 31 58 95 234 95 262 0 24 18 13 29 -18 13 -37 129 -155
166 -169 103 -39 227 20 345 165 59 72 110 166 110 203 0 10 12 41 27 68 20
36 27 65 29 109 0 33 5 112 9 176 10 155 0 197 -71 283 -44 54 -67 72 -131
102 -74 36 -83 38 -183 38 -96 1 -109 -1 -155 -27 -27 -15 -60 -34 -71 -43
-22 -15 -22 -15 -28 68 -4 46 -9 103 -11 128 -2 25 -7 79 -11 120 -7 86 -6 78
-33 204 -32 147 -68 264 -106 341 -36 74 -87 165 -111 199 -20 29 -18 33 24
59 66 42 227 204 276 277 44 65 80 145 123 269 24 70 15 232 -16 296 -50 100
-129 163 -231 184 -58 13 -289 16 -362 5 -86 -12 -192 -35 -252 -55 -63 -21
-84 -29 -198 -84 l-67 -32 -118 117 c-65 64 -134 128 -154 141 -19 13 -57 39
-82 58 -47 35 -47 35 -30 60 9 14 44 59 77 100 109 131 204 269 256 366 38 73
109 258 145 380 14 50 30 104 35 120 33 105 41 444 15 550 -9 33 -22 88 -30
122 -18 81 -58 171 -154 346 -86 156 -146 246 -262 395 -41 53 -99 129 -129
167 -83 108 -157 182 -249 247 -86 61 -200 126 -258 146 -24 8 -33 17 -33 34
0 13 -12 55 -26 93 -34 96 -61 194 -80 293 -8 46 -22 104 -30 130 -8 26 -30
151 -50 277 -19 127 -42 255 -50 285 -9 30 -24 91 -35 135 -11 44 -24 89 -29
100 -6 11 -19 45 -29 76 -40 118 -117 159 -191 101z m90 -360 c0 -8 13 -66 29
-130 16 -65 32 -150 36 -191 8 -88 25 -185 60 -336 14 -60 34 -152 46 -204 28
-128 63 -227 100 -279 18 -25 29 -51 26 -62 -11 -42 42 -95 138 -140 61 -29
175 -101 233 -149 41 -32 42 -35 23 -43 -16 -5 -21 -16 -21 -41 0 -38 11 -51
52 -61 21 -5 30 -2 38 15 11 20 12 20 31 3 11 -10 52 -60 92 -111 40 -52 87
-113 105 -136 120 -154 282 -437 340 -592 70 -189 77 -488 16 -695 -39 -130
-94 -288 -126 -359 -39 -85 -137 -233 -234 -352 -44 -53 -118 -146 -167 -207
-121 -153 -342 -354 -489 -443 -24 -14 -93 -54 -154 -88 -61 -34 -123 -73
-139 -87 -15 -13 -32 -24 -38 -24 -5 0 -21 -8 -35 -18 -15 -10 -65 -35 -112
-56 -47 -22 -134 -62 -195 -91 -215 -102 -255 -118 -425 -176 -228 -76 -294
-99 -315 -109 -11 -5 -45 -16 -75 -25 -30 -9 -69 -23 -87 -31 -17 -8 -37 -14
-45 -14 -7 0 -57 -13 -110 -30 -94 -28 -191 -42 -383 -55 -49 -3 -130 -10
-180 -14 -170 -15 -617 10 -810 45 -44 8 -145 26 -226 39 -173 28 -190 32
-384 97 -235 79 -323 115 -548 229 -94 47 -222 133 -243 163 -8 11 -29 44 -47
71 -18 28 -47 71 -65 96 -17 25 -45 82 -62 125 -17 43 -39 97 -49 119 -32 71
-77 227 -91 315 -28 179 9 471 84 665 53 138 139 365 163 430 53 143 60 155
87 155 14 0 37 11 52 24 23 19 27 30 25 62 -8 83 -1 136 22 196 33 84 42 142
27 179 -15 34 -10 33 -46 14 l-29 -15 -18 113 c-31 195 -35 238 -46 412 -19
297 -40 471 -75 620 -14 55 -27 121 -31 148 l-7 47 73 -26 c72 -25 447 -209
498 -243 72 -49 119 -76 271 -155 91 -47 176 -93 190 -100 14 -8 46 -24 72
-36 25 -12 56 -33 69 -46 15 -16 33 -24 56 -24 18 0 41 -4 51 -9 77 -40 90
-44 125 -37 34 6 64 35 79 76 3 8 59 37 124 64 66 26 128 52 139 57 28 12 281
102 455 161 123 42 371 109 487 133 25 5 39 2 59 -14 43 -34 158 -23 394 38
136 35 218 51 270 52 41 1 86 6 100 11 65 24 106 103 60 115 -21 6 -27 28 -10
38 6 4 8 15 5 25 -5 16 43 79 174 225 15 17 66 83 93 120 4 6 27 35 51 65 46
59 119 166 130 190 4 8 11 22 17 30 22 35 166 289 189 333 l24 49 19 -49 c10
-26 18 -54 18 -61z m956 -4310 c76 -52 294 -231 294 -241 0 -3 -37 -31 -83
-61 -45 -30 -86 -58 -92 -62 -99 -75 -223 -177 -273 -223 -58 -54 -152 -171
-152 -190 0 -5 -6 -16 -14 -24 -8 -9 -31 -59 -51 -111 -20 -52 -47 -115 -59
-140 -39 -76 -48 -147 -26 -201 20 -47 78 -50 118 -6 19 22 132 265 132 286 0
15 67 139 98 181 40 54 135 140 262 237 92 70 289 203 301 203 5 0 48 18 95
41 245 115 338 141 544 147 211 6 274 -18 304 -116 15 -50 13 -150 -4 -179 -5
-10 -25 -56 -45 -103 -24 -57 -53 -105 -87 -144 -70 -79 -209 -199 -255 -221
-21 -10 -47 -25 -58 -35 -29 -25 -358 -200 -376 -200 -8 0 -19 -4 -25 -10 -14
-14 -328 -72 -459 -84 -38 -4 -99 -11 -135 -17 -36 -5 -119 -12 -185 -15 -140
-7 -168 -19 -173 -76 -3 -30 3 -41 30 -67 29 -27 40 -31 89 -31 185 0 597 53
814 105 96 23 224 73 255 100 21 18 199 109 203 104 19 -25 120 -217 136 -259
49 -126 90 -322 106 -505 8 -99 18 -193 21 -210 4 -16 8 -132 11 -256 5 -217
4 -232 -22 -350 -78 -366 -132 -508 -278 -728 l-36 -54 -52 108 c-89 183 -268
402 -425 520 -40 30 -75 55 -78 55 -4 0 -23 12 -44 28 -28 20 -36 33 -34 51 7
44 -6 71 -34 71 -14 0 -35 -5 -47 -12 -12 -6 -43 -10 -69 -9 -44 1 -49 -1 -58
-25 -6 -14 -8 -29 -6 -33 3 -4 -15 -28 -40 -54 -58 -62 -101 -156 -158 -348
-48 -161 -57 -223 -72 -509 -3 -58 -9 -119 -14 -136 -12 -49 -12 -428 0 -474
6 -22 12 -109 13 -192 l2 -152 -45 -23 c-25 -12 -88 -41 -140 -64 -52 -23
-129 -57 -170 -76 -91 -42 -155 -63 -196 -63 -31 0 -158 -66 -199 -103 -11
-10 -31 -20 -45 -23 -30 -6 -232 -79 -275 -99 -105 -49 -320 -95 -460 -100
-28 -1 -59 -7 -70 -12 -11 -6 -47 -16 -80 -22 -33 -6 -72 -13 -87 -16 -15 -3
-29 -1 -33 5 -3 5 -8 51 -11 102 -3 51 -18 162 -34 246 -32 161 -65 248 -135
352 -19 29 -35 56 -35 60 0 4 -7 13 -15 20 -16 13 -76 136 -107 218 -11 28
-24 52 -29 52 -5 0 -9 5 -9 11 0 6 -20 31 -45 56 -42 42 -115 173 -115 207 0
7 -7 20 -16 27 -9 8 -28 31 -41 53 -38 60 -152 168 -213 202 -30 17 -79 40
-109 50 -29 10 -55 23 -56 29 -2 5 -6 23 -10 39 l-6 29 -108 -5 c-148 -7 -213
-32 -302 -116 -109 -102 -143 -184 -184 -442 -8 -48 -14 -166 -14 -269 l-1
-184 -23 24 c-12 13 -42 51 -67 84 -72 98 -221 265 -361 404 -147 148 -235
296 -299 502 -82 268 -90 294 -90 308 0 8 -7 42 -15 75 -8 34 -27 135 -41 226
-55 352 -61 386 -68 407 -11 33 40 40 93 13 44 -22 189 -71 261 -88 160 -38
475 -47 615 -18 210 43 449 121 468 152 4 7 14 20 22 28 9 8 18 34 21 58 5 43
5 43 -89 143 -52 55 -114 114 -138 130 -24 17 -46 33 -49 36 -3 4 -31 22 -63
40 -32 19 -75 44 -95 56 -20 12 -68 32 -107 44 -38 11 -74 25 -80 29 -28 23
-313 126 -415 150 -41 10 -109 27 -150 39 -41 11 -103 25 -138 32 -52 10 -62
15 -56 28 4 9 17 57 29 106 31 126 55 203 76 250 10 22 24 56 32 76 8 20 30
48 48 62 l34 25 135 -24 c74 -14 173 -31 220 -39 47 -7 125 -21 174 -29 159
-28 571 -45 801 -33 431 23 491 35 855 157 253 85 547 189 615 218 72 31 306
137 334 152 9 5 52 26 96 46 44 20 116 60 160 89 44 29 147 90 228 136 165 93
288 189 437 339 52 53 98 97 101 98 3 1 37 -20 75 -46z m-4536 -1776 c69 -3
141 -10 160 -15 158 -41 276 -73 335 -91 138 -43 379 -152 434 -195 50 -40 86
-58 120 -62 46 -5 84 -30 149 -96 l53 -53 -27 -13 c-15 -6 -61 -20 -103 -31
-42 -10 -101 -26 -131 -35 -71 -22 -354 -32 -482 -16 -118 14 -262 51 -358 92
-41 17 -100 42 -130 55 -30 13 -68 24 -83 24 -16 0 -48 14 -72 30 -24 17 -46
30 -50 30 -3 0 -30 16 -60 35 -45 28 -56 41 -65 76 -8 30 -32 64 -86 120 -41
43 -74 84 -74 91 0 7 -3 23 -6 35 -6 22 -5 22 132 25 77 2 157 2 179 1 22 -1
96 -4 165 -7z m4822 -1209 c146 -104 280 -245 370 -388 31 -49 128 -241 128
-253 0 -3 13 -35 30 -70 48 -107 59 -135 112 -286 141 -404 153 -569 52 -694
-41 -51 -164 -144 -234 -177 -36 -17 -91 -44 -124 -61 -51 -27 -65 -30 -115
-25 -80 7 -124 33 -212 124 -97 100 -117 128 -176 243 -84 161 -106 266 -118
545 -3 77 -9 187 -14 245 -5 57 -8 107 -6 110 2 3 11 84 20 180 16 177 22 201
102 435 22 63 66 145 78 145 3 0 51 -33 107 -73z m-3310 -723 c106 -38 179
-77 214 -116 91 -96 163 -193 169 -227 10 -58 26 -92 71 -151 23 -30 52 -75
64 -100 12 -25 30 -54 39 -65 10 -11 24 -38 33 -60 8 -22 41 -80 74 -130 64
-99 124 -218 124 -251 0 -11 9 -54 20 -95 31 -117 28 -283 -9 -430 -30 -122
-48 -158 -137 -271 -80 -104 -124 -134 -254 -178 -74 -25 -99 -21 -152 24 -66
57 -225 246 -295 351 -36 55 -74 111 -83 125 -51 76 -115 226 -163 385 -77
251 -88 309 -97 472 -5 89 -7 177 -5 195 2 18 9 85 16 148 13 138 12 127 39
219 24 77 76 150 109 152 9 0 32 6 51 13 54 21 92 18 172 -10z"/>
<path d="M6395 8343 c-109 -13 -221 -36 -262 -54 -26 -11 -100 -38 -163 -59
-173 -57 -395 -162 -460 -217 -65 -56 -180 -259 -180 -318 0 -31 -2 -31 -48 0
-50 34 -68 32 -82 -9 -19 -60 16 -143 89 -209 74 -67 152 -95 286 -103 83 -5
247 6 305 20 14 3 59 13 100 22 106 23 295 115 385 188 22 18 81 59 130 91 50
32 131 94 182 137 51 43 100 78 110 78 19 0 62 26 75 44 14 20 8 66 -12 103
-11 21 -20 52 -20 68 0 29 -42 85 -63 85 -4 0 -24 11 -45 24 -20 13 -64 30
-97 36 -40 8 -74 23 -104 46 -43 33 -56 36 -126 27z m44 -187 c13 -15 135 -76
153 -76 13 0 58 -40 58 -51 0 -4 -19 -19 -42 -32 -24 -14 -61 -42 -83 -62 -58
-54 -115 -89 -127 -77 -16 16 -12 66 11 109 28 56 27 106 -3 146 -39 54 -40
57 -8 57 16 0 35 -6 41 -14z m-518 -168 c6 -267 4 -256 38 -320 24 -47 28 -63
19 -69 -49 -31 -302 -57 -422 -44 l-68 7 7 51 c7 65 89 229 130 265 17 14 68
43 115 64 47 22 101 48 120 58 50 27 60 25 61 -12z"/>
<path d="M3525 7540 c-22 -5 -76 -20 -120 -33 -200 -62 -252 -89 -356 -189
-146 -139 -237 -381 -170 -452 12 -12 21 -28 21 -35 0 -25 40 -89 76 -121 55
-48 123 -75 280 -114 172 -42 350 -54 435 -30 30 8 78 21 108 28 29 8 56 18
60 24 3 5 38 26 76 45 98 50 299 197 407 296 39 36 53 57 62 96 11 43 22 57
77 102 122 98 139 118 139 156 0 51 -41 90 -115 111 -33 9 -98 29 -145 43 -47
15 -116 33 -155 41 -115 23 -609 46 -680 32z m81 -207 c-4 -21 -22 -67 -39
-103 -30 -61 -32 -72 -35 -195 -3 -131 13 -250 40 -282 6 -7 9 -15 7 -17 -6
-6 -199 12 -259 24 -79 17 -211 60 -237 79 -17 12 -21 23 -18 41 3 14 -2 38
-10 54 -20 39 -20 40 22 124 36 72 95 142 164 194 45 35 279 114 343 117 27 1
28 0 22 -36z m602 -9 c26 -7 55 -14 65 -14 10 0 29 -7 43 -16 l25 -17 -33 -34
c-26 -27 -32 -41 -31 -73 2 -37 -2 -42 -75 -102 -42 -35 -103 -83 -134 -106
l-58 -43 0 63 c-1 35 -7 81 -15 103 -20 54 -19 78 5 122 24 45 26 100 5 130
-15 22 -15 22 47 25 39 2 72 -2 86 -10 13 -7 44 -20 70 -28z"/>
<path d="M5300 6886 c-36 -13 -83 -32 -105 -43 -22 -11 -65 -28 -95 -38 -89
-28 -317 -143 -355 -179 -37 -35 -44 -70 -26 -118 5 -13 48 -57 96 -97 97 -81
137 -98 256 -108 68 -5 86 -3 152 22 42 15 84 35 95 45 35 33 60 84 67 135 3
28 25 91 48 140 33 71 42 100 40 139 -1 59 -18 93 -55 112 -35 18 -41 18 -118
-10z m-76 -268 c-8 -29 -14 -65 -14 -81 0 -23 -7 -31 -37 -44 -56 -23 -162
-13 -202 18 -16 13 -30 26 -30 30 -1 6 71 39 199 90 52 21 95 38 96 39 1 0 -5
-23 -12 -52z"/>
<path d="M6491 6364 c-11 -14 -25 -42 -32 -62 -22 -70 -118 -217 -198 -304
-19 -21 -40 -46 -47 -56 -7 -10 -37 -37 -66 -59 -43 -32 -71 -44 -148 -61
-145 -33 -162 -34 -226 -22 -32 6 -70 13 -84 16 -30 6 -98 40 -122 61 -29 26
-125 175 -144 223 -21 53 -46 85 -109 140 -56 49 -79 51 -94 9 -17 -48 -13
-79 15 -139 18 -37 28 -78 31 -126 5 -70 5 -72 -28 -108 -54 -58 -389 -245
-438 -246 -14 0 -67 -7 -118 -17 -91 -16 -94 -16 -164 5 -70 21 -73 21 -103 4
-108 -63 -48 -159 119 -190 67 -13 68 -13 252 21 100 19 147 33 195 59 90 48
227 127 269 155 19 12 38 23 42 23 9 0 51 36 87 74 l27 29 41 -41 c51 -51 115
-84 212 -108 179 -45 449 -5 575 85 55 39 182 175 244 261 22 30 49 67 60 82
53 67 76 130 76 204 0 57 -4 76 -19 93 -28 30 -79 28 -105 -5z"/>
</g>
</svg>
